<!-- Generated by IcoMoon.io -->
<svg version="1.1" xmlns="http://www.w3.org/2000/svg" width="32" height="32" viewBox="0 0 32 32">
<title>banknote</title>
<path d="M19.099 15.183c-0.729-1.696-2.764-2.832-4.547-2.535-1.783 0.296-2.639 1.911-1.909 3.608 0.771 1.791 2.979 2.936 4.797 2.484 1.612-0.399 2.355-1.941 1.659-3.557zM16.855 17.295l0.16 0.356-0.337 0.069-0.151-0.339c-0.349 0.063-0.748 0.055-1.115-0.041l-0.101-0.601c0.303 0.047 0.679 0.089 0.967 0.031l0.193-0.063c0.344-0.168 0.239-0.599-0.272-0.7-0.379-0.084-1.384-0.023-1.759-0.856-0.211-0.471-0.055-0.963 0.552-1.188l-0.167-0.371 0.336-0.069 0.16 0.355c0.247-0.041 0.535-0.056 0.873-0.027l0.136 0.595c-0.263-0.033-0.547-0.063-0.795-0.012l-0.093 0.024c-0.479 0.127-0.325 0.581 0.1 0.692 0.703 0.163 1.541 0.215 1.872 0.949 0.265 0.593-0.045 1-0.56 1.196zM25.373 9.915l3.668 8.005c-6.305 3.364-14.971-0.263-22.528 3.921l-3.648-7.963c0.987-0.687 2.083-1.168 3.357-1.484 4.477-1.111 10.057 0.105 15.803-1.32 1.18-0.293 2.291-0.677 3.348-1.16zM26.452 6.667c-9.105 5.897-19.168-0.468-26.452 6.56l5.548 12.107c7.805-6.616 18.447-0.352 26.452-6.56l-5.548-12.107z"></path>
</svg>
