<!-- Generated by IcoMoon.io -->
<svg version="1.1" xmlns="http://www.w3.org/2000/svg" width="32" height="32" viewBox="0 0 32 32">
<title>bell-o</title>
<path d="M27.164 20.932c-0.457 0-0.83-0.372-0.83-0.83v-5.861c0-4.628-3.057-8.554-7.258-9.867 0.126-0.352 0.193-0.725 0.193-1.105 0-1.803-1.467-3.269-3.269-3.269s-3.269 1.467-3.269 3.269c0 0.383 0.065 0.756 0.191 1.106-4.2 1.313-7.256 5.239-7.256 9.866v5.861c0 0.458-0.372 0.83-0.83 0.83-1.83 0-3.318 1.488-3.318 3.318s1.488 3.318 3.318 3.318h7.74c-0.075 0.288-0.114 0.588-0.114 0.894 0 1.951 1.587 3.538 3.538 3.538s3.538-1.587 3.538-3.538c0-0.306-0.039-0.606-0.114-0.894h7.74c1.83 0 3.318-1.488 3.318-3.318s-1.488-3.318-3.318-3.318zM14.615 3.269c0-0.764 0.621-1.385 1.385-1.385s1.385 0.621 1.385 1.385c0 0.25-0.068 0.494-0.194 0.706-0.391-0.045-0.788-0.069-1.191-0.069s-0.799 0.024-1.19 0.069c-0.126-0.212-0.195-0.453-0.195-0.706zM17.653 28.462c0 0.912-0.742 1.653-1.653 1.653s-1.653-0.742-1.653-1.653c0-0.322 0.092-0.63 0.262-0.894h2.781c0.171 0.264 0.262 0.572 0.262 0.894zM27.164 25.683h-22.328c-0.79 0-1.433-0.643-1.433-1.433s0.643-1.433 1.433-1.433c1.497 0 2.714-1.218 2.714-2.714v-5.861c0-4.659 3.791-8.45 8.45-8.45s8.45 3.791 8.45 8.45v5.861c0 1.497 1.218 2.714 2.714 2.714 0.79 0 1.433 0.643 1.433 1.433s-0.643 1.433-1.433 1.433z"></path>
</svg>
