<svg aria-hidden="true" style="position: absolute; width: 0; height: 0; overflow: hidden;" version="1.1" xmlns="http://www.w3.org/2000/svg" xmlns:xlink="http://www.w3.org/1999/xlink">
<defs>
<symbol id="icon-circle" viewBox="0 0 24 24">
<path d="M12 2.016q-2.063 0-3.891 0.773t-3.188 2.133-2.133 3.188-0.773 3.891 0.773 3.891 2.133 3.188 3.188 2.133 3.891 0.773 3.891-0.773 3.188-2.133 2.133-3.188 0.773-3.891-0.773-3.891-2.133-3.188-3.188-2.133-3.891-0.773z"></path>
</symbol>
<symbol id="icon-timetable" viewBox="0 0 24 24">
<path d="M69.76,4.06C69.76,1.83,72,0,74.71,0s5,1.81,5,4.06V21.8c0,2.23-2.2,4.06-5,4.06s-4.95-1.81-4.95-4.06V4.06ZM87.08,75.55a3.16,3.16,0,1,1,6.31,0V89.36h9.86a3.16,3.16,0,1,1,0,6.31h-13a3.17,3.17,0,0,1-3.16-3.16v-17Zm-72.71,2.5H25.71A1.31,1.31,0,0,1,27,79.36v8.38a1.31,1.31,0,0,1-1.31,1.31H14.37a1.31,1.31,0,0,1-1.31-1.31V79.36a1.31,1.31,0,0,1,1.31-1.31ZM57.79,54.17H69.13a1.32,1.32,0,0,1,.9.36A40.37,40.37,0,0,0,58.66,65.18h-.87a1.31,1.31,0,0,1-1.31-1.31V55.49a1.32,1.32,0,0,1,1.31-1.32Zm-21.71,0H47.42a1.31,1.31,0,0,1,1.31,1.31v8.38a1.31,1.31,0,0,1-1.31,1.31H36.08a1.31,1.31,0,0,1-1.31-1.31V55.48a1.31,1.31,0,0,1,1.31-1.31Zm-21.71,0H25.71A1.31,1.31,0,0,1,27,55.48v8.38a1.31,1.31,0,0,1-1.31,1.31H14.37a1.31,1.31,0,0,1-1.31-1.31V55.48a1.31,1.31,0,0,1,1.31-1.31ZM36.08,78.05H47.42a1.31,1.31,0,0,1,1.31,1.31v8.38a1.31,1.31,0,0,1-1.31,1.31H36.08a1.31,1.31,0,0,1-1.31-1.31V79.36a1.31,1.31,0,0,1,1.31-1.31Zm67.41-18.51a31.41,31.41,0,1,1-43.43,29A31.92,31.92,0,0,1,79.61,59.33a33.06,33.06,0,0,1,23.88.21Zm6.63,10.87c-13-13-34.95-9.33-42.56,7A26.36,26.36,0,1,0,115.2,77a24.36,24.36,0,0,0-5.08-6.62ZM25.33,4.06c0-2.23,2.2-4.06,5-4.06s4.95,1.81,4.95,4.06V21.8c0,2.23-2.21,4.06-4.95,4.06s-5-1.81-5-4.06V4.06ZM99.66,38.8V18.37a2.46,2.46,0,0,0-.73-1.76,2.51,2.51,0,0,0-1.76-.73h-9a2.74,2.74,0,1,1,0-5.48h9a8,8,0,0,1,8,8V50.82a41,41,0,0,0-5.56-1.49V44.26H5.45V97.17a2.46,2.46,0,0,0,.73,1.76,2.51,2.51,0,0,0,1.76.73H52.71a40.27,40.27,0,0,0,1.92,5.54H8a8,8,0,0,1-8-8V18.39a8,8,0,0,1,8-8h9.64a2.74,2.74,0,1,1,0,5.48H8a2.46,2.46,0,0,0-1.76.73,2.51,2.51,0,0,0-.73,1.76V38.8ZM43.13,15.87a2.74,2.74,0,0,1,0-5.48H61.52a2.74,2.74,0,1,1,0,5.48Z"/>
</symbol>
<symbol id="icon-location" viewBox="0 0 32 32">
<path d="M16.002 17.746c3.309 0 6-2.692 6-6s-2.691-6-6-6c-3.309 0-6 2.691-6 6s2.691 6 6 6zM16.002 6.746c2.758 0 5 2.242 5 5s-2.242 5-5 5c-2.758 0-5-2.242-5-5s2.242-5 5-5zM16 0c-6.618 0-12 5.316-12 12.001 0 7 6.001 14.161 10.376 19.194 0.016 0.020 0.718 0.805 1.586 0.805 0.002 0 0.073 0 0.077 0 0.867 0 1.57-0.785 1.586-0.805 4.377-5.033 10.377-12.193 10.377-19.194 0-6.685-5.383-12.001-12.002-12.001zM16.117 29.883c-0.021 0.020-0.082 0.064-0.135 0.098-0.010-0.027-0.084-0.086-0.129-0.133-3.665-4.217-9.853-11.334-9.853-17.847 0-5.514 4.487-10.001 10-10.001 5.516 0 10.002 4.487 10.002 10.002 0 6.512-6.188 13.629-9.885 17.881z"></path>
</symbol>
<symbol id="icon-camera" viewBox="0 0 42 32">
<path d="M39.5 6h-7.5c-1.927 0-1.998-1.797-2-2v-1c0-1.258-1.39-3-4-3h-9.969c-2.935 0-4 1.794-4 3v0.994c-0.001 0.082-0.048 2.006-2.031 2.006h-7.5c-1.379 0-2.5 1.122-2.5 2.5v18c0 1.378 1.121 2.5 2.5 2.5h6c0.276 0 0.5-0.224 0.5-0.5s-0.224-0.5-0.5-0.5h-6c-0.827 0-1.5-0.673-1.5-1.5v-12.5h8c-0.644 1.54-1 3.229-1 5 0 7.168 5.832 13 13 13s13-5.832 13-13c0-1.771-0.359-3.46-1.003-5h8.003v12.5c0 0.827-0.673 1.5-1.5 1.5h-7c-0.276 0-0.5 0.224-0.5 0.5s0.224 0.5 0.5 0.5h7c1.379 0 2.5-1.122 2.5-2.5v-18c0-1.378-1.121-2.5-2.5-2.5zM21 31c-6.617 0-12-5.383-12-12s5.383-12 12-12 12 5.383 12 12-5.383 12-12 12zM32.75 13c-0.074 0-0.143 0.018-0.206 0.047-2.164-4.179-6.522-7.047-11.544-7.047s-9.38 2.868-11.544 7.047c-0.063-0.029-0.132-0.047-0.206-0.047h-8.25v-4.5c0-0.827 0.673-1.5 1.5-1.5h7.5c2.368 0 3.019-1.958 3.031-3v-1c0-0.804 0.799-2 3-2h9.969c2.094 0 3 1.324 3 2v1c0 1.038 0.627 3 3 3h7.5c0.827 0 1.5 0.673 1.5 1.5v4.5h-8.25zM9.5 5c0.276 0 0.5-0.224 0.5-0.5v-1c0-0.827-0.673-1.5-1.5-1.5h-4c-0.827 0-1.5 0.673-1.5 1.5v1c0 0.276 0.224 0.5 0.5 0.5s0.5-0.224 0.5-0.5v-1c0-0.276 0.225-0.5 0.5-0.5h4c0.275 0 0.5 0.224 0.5 0.5v1c0 0.276 0.224 0.5 0.5 0.5zM21 10c-4.963 0-9 4.038-9 9s4.037 9 9 9 9-4.038 9-9-4.037-9-9-9zM21 27c-4.411 0-8-3.589-8-8s3.589-8 8-8 8 3.589 8 8-3.589 8-8 8z"></path>
</symbol>
<symbol id="icon-bell-o" viewBox="0 0 32 32">
<path d="M27.164 20.932c-0.457 0-0.83-0.372-0.83-0.83v-5.861c0-4.628-3.057-8.554-7.258-9.867 0.126-0.352 0.193-0.725 0.193-1.105 0-1.803-1.467-3.269-3.269-3.269s-3.269 1.467-3.269 3.269c0 0.383 0.065 0.756 0.191 1.106-4.2 1.313-7.256 5.239-7.256 9.866v5.861c0 0.458-0.372 0.83-0.83 0.83-1.83 0-3.318 1.488-3.318 3.318s1.488 3.318 3.318 3.318h7.74c-0.075 0.288-0.114 0.588-0.114 0.894 0 1.951 1.587 3.538 3.538 3.538s3.538-1.587 3.538-3.538c0-0.306-0.039-0.606-0.114-0.894h7.74c1.83 0 3.318-1.488 3.318-3.318s-1.488-3.318-3.318-3.318zM14.615 3.269c0-0.764 0.621-1.385 1.385-1.385s1.385 0.621 1.385 1.385c0 0.25-0.068 0.494-0.194 0.706-0.391-0.045-0.788-0.069-1.191-0.069s-0.799 0.024-1.19 0.069c-0.126-0.212-0.195-0.453-0.195-0.706zM17.653 28.462c0 0.912-0.742 1.653-1.653 1.653s-1.653-0.742-1.653-1.653c0-0.322 0.092-0.63 0.262-0.894h2.781c0.171 0.264 0.262 0.572 0.262 0.894zM27.164 25.683h-22.328c-0.79 0-1.433-0.643-1.433-1.433s0.643-1.433 1.433-1.433c1.497 0 2.714-1.218 2.714-2.714v-5.861c0-4.659 3.791-8.45 8.45-8.45s8.45 3.791 8.45 8.45v5.861c0 1.497 1.218 2.714 2.714 2.714 0.79 0 1.433 0.643 1.433 1.433s-0.643 1.433-1.433 1.433z"></path>
</symbol>
<symbol id="icon-banknote" viewBox="0 0 32 32">
<path d="M19.099 15.183c-0.729-1.696-2.764-2.832-4.547-2.535-1.783 0.296-2.639 1.911-1.909 3.608 0.771 1.791 2.979 2.936 4.797 2.484 1.612-0.399 2.355-1.941 1.659-3.557zM16.855 17.295l0.16 0.356-0.337 0.069-0.151-0.339c-0.349 0.063-0.748 0.055-1.115-0.041l-0.101-0.601c0.303 0.047 0.679 0.089 0.967 0.031l0.193-0.063c0.344-0.168 0.239-0.599-0.272-0.7-0.379-0.084-1.384-0.023-1.759-0.856-0.211-0.471-0.055-0.963 0.552-1.188l-0.167-0.371 0.336-0.069 0.16 0.355c0.247-0.041 0.535-0.056 0.873-0.027l0.136 0.595c-0.263-0.033-0.547-0.063-0.795-0.012l-0.093 0.024c-0.479 0.127-0.325 0.581 0.1 0.692 0.703 0.163 1.541 0.215 1.872 0.949 0.265 0.593-0.045 1-0.56 1.196zM25.373 9.915l3.668 8.005c-6.305 3.364-14.971-0.263-22.528 3.921l-3.648-7.963c0.987-0.687 2.083-1.168 3.357-1.484 4.477-1.111 10.057 0.105 15.803-1.32 1.18-0.293 2.291-0.677 3.348-1.16zM26.452 6.667c-9.105 5.897-19.168-0.468-26.452 6.56l5.548 12.107c7.805-6.616 18.447-0.352 26.452-6.56l-5.548-12.107z"></path>
</symbol>
<symbol id="icon-home" viewBox="0 0 26 28">
<path d="M22 15.5v7.5c0 0.547-0.453 1-1 1h-6v-6h-4v6h-6c-0.547 0-1-0.453-1-1v-7.5c0-0.031 0.016-0.063 0.016-0.094l8.984-7.406 8.984 7.406c0.016 0.031 0.016 0.063 0.016 0.094zM25.484 14.422l-0.969 1.156c-0.078 0.094-0.203 0.156-0.328 0.172h-0.047c-0.125 0-0.234-0.031-0.328-0.109l-10.813-9.016-10.813 9.016c-0.109 0.078-0.234 0.125-0.375 0.109-0.125-0.016-0.25-0.078-0.328-0.172l-0.969-1.156c-0.172-0.203-0.141-0.531 0.063-0.703l11.234-9.359c0.656-0.547 1.719-0.547 2.375 0l3.813 3.187v-3.047c0-0.281 0.219-0.5 0.5-0.5h3c0.281 0 0.5 0.219 0.5 0.5v6.375l3.422 2.844c0.203 0.172 0.234 0.5 0.063 0.703z"></path>
</symbol>
<symbol id="icon-calendar-d" viewBox="0 0 26 28">
<path d="M2 26h4.5v-4.5h-4.5v4.5zM7.5 26h5v-4.5h-5v4.5zM2 20.5h4.5v-5h-4.5v5zM7.5 20.5h5v-5h-5v5zM2 14.5h4.5v-4.5h-4.5v4.5zM13.5 26h5v-4.5h-5v4.5zM7.5 14.5h5v-4.5h-5v4.5zM19.5 26h4.5v-4.5h-4.5v4.5zM13.5 20.5h5v-5h-5v5zM8 7v-4.5c0-0.266-0.234-0.5-0.5-0.5h-1c-0.266 0-0.5 0.234-0.5 0.5v4.5c0 0.266 0.234 0.5 0.5 0.5h1c0.266 0 0.5-0.234 0.5-0.5zM19.5 20.5h4.5v-5h-4.5v5zM13.5 14.5h5v-4.5h-5v4.5zM19.5 14.5h4.5v-4.5h-4.5v4.5zM20 7v-4.5c0-0.266-0.234-0.5-0.5-0.5h-1c-0.266 0-0.5 0.234-0.5 0.5v4.5c0 0.266 0.234 0.5 0.5 0.5h1c0.266 0 0.5-0.234 0.5-0.5zM26 6v20c0 1.094-0.906 2-2 2h-22c-1.094 0-2-0.906-2-2v-20c0-1.094 0.906-2 2-2h2v-1.5c0-1.375 1.125-2.5 2.5-2.5h1c1.375 0 2.5 1.125 2.5 2.5v1.5h6v-1.5c0-1.375 1.125-2.5 2.5-2.5h1c1.375 0 2.5 1.125 2.5 2.5v1.5h2c1.094 0 2 0.906 2 2z"></path>
</symbol>
<symbol id="icon-dots-three-horizontal" viewBox="0 0 20 20">
<path d="M10.001 7.8c-1.215 0-2.201 0.985-2.201 2.2s0.986 2.2 2.201 2.2c1.215 0 2.199-0.985 2.199-2.2s-0.984-2.2-2.199-2.2zM3.001 7.8c-1.215 0-2.201 0.985-2.201 2.2s0.986 2.2 2.201 2.2c1.215 0 2.199-0.986 2.199-2.2s-0.984-2.2-2.199-2.2zM17.001 7.8c-1.215 0-2.201 0.985-2.201 2.2s0.986 2.2 2.201 2.2c1.215 0 2.199-0.985 2.199-2.2s-0.984-2.2-2.199-2.2z"></path>
</symbol>
<symbol id="icon-chat" viewBox="0 0 20 20">
<path d="M5.8 12.2v-6.2h-3.8c-1.1 0-2 0.9-2 2v6c0 1.1 0.9 2 2 2h1v3l3-3h5c1.1 0 2-0.9 2-2v-1.82c-0.064 0.014-0.132 0.021-0.2 0.021l-7-0.001zM18 1h-9c-1.1 0-2 0.9-2 2v8h7l3 3v-3h1c1.1 0 2-0.899 2-2v-6c0-1.1-0.9-2-2-2z"></path>
</symbol>
<symbol id="icon-calendar-m" viewBox="0 0 32 32">
<path d="M10 12h4v4h-4zM16 12h4v4h-4zM22 12h4v4h-4zM4 24h4v4h-4zM10 24h4v4h-4zM16 24h4v4h-4zM10 18h4v4h-4zM16 18h4v4h-4zM22 18h4v4h-4zM4 18h4v4h-4zM26 0v2h-4v-2h-14v2h-4v-2h-4v32h30v-32h-4zM28 30h-26v-22h26v22z"></path>
</symbol>
</defs>
</svg>
